<svg xmlns="http://www.w3.org/2000/svg" viewBox="0 0 512 512" role="img" aria-label="DeskMakeover">
  <defs>
    <linearGradient id="coral" x1="96" y1="48" x2="416" y2="464" gradientUnits="userSpaceOnUse">
      <stop offset="0" stop-color="#ff8b74"/>
      <stop offset="0.55" stop-color="#ff6f5e"/>
      <stop offset="1" stop-color="#d94e42"/>
    </linearGradient>
    <linearGradient id="panel" x1="126" y1="128" x2="386" y2="356" gradientUnits="userSpaceOnUse">
      <stop offset="0" stop-color="#fff8ef"/>
      <stop offset="1" stop-color="#f5e2d1"/>
    </linearGradient>
    <filter id="softShadow" x="-20%" y="-20%" width="140%" height="150%">
      <feDropShadow dx="0" dy="22" stdDeviation="22" flood-color="#7a211a" flood-opacity="0.26"/>
    </filter>
  </defs>

  <!-- Outer frame: the TRUE iOS continuous-corner squircle (APPLE_CORNER_FACTOR 0.225),
       generated from src/icon-compositor/shapes.ts so the logo matches the in-app Apple shape
       exactly. Square 448 tile centered in the 512 box (32..480). -->
  <path d="M186.09 32L325.91 32C370.28 32 392.46 32 416.35 39.55C442.42 49.04 462.96 69.58 472.45 95.65C480 119.54 480 141.72 480 186.09L480 325.91C480 370.28 480 392.46 472.45 416.35C462.96 442.42 442.42 462.96 416.35 472.45C392.46 480 370.28 480 325.91 480L186.09 480C141.72 480 119.54 480 95.65 472.45C69.58 462.96 49.04 442.42 39.55 416.35C32 392.46 32 370.28 32 325.91L32 186.09C32 141.72 32 119.54 39.55 95.65C49.04 69.58 69.58 49.04 95.65 39.55C119.54 32 141.72 32 186.09 32Z" fill="url(#coral)"/>
  <path d="M115 141c0-22 18-40 40-40h202c22 0 40 18 40 40v186c0 22-18 40-40 40H155c-22 0-40-18-40-40V141Z" fill="url(#panel)" filter="url(#softShadow)"/>
  <path d="M147 156c0-12 10-22 22-22h174c12 0 22 10 22 22v38H147v-38Z" fill="#fffaf4"/>
  <path d="M147 194h218v118c0 13-10 23-23 23H170c-13 0-23-10-23-23V194Z" fill="#2b2728" opacity="0.92"/>

  <rect x="174" y="224" width="54" height="54" rx="14" fill="#fff3e7"/>
  <rect x="244" y="224" width="54" height="54" rx="14" fill="#ffd8c8"/>
  <rect x="314" y="224" width="24" height="54" rx="12" fill="#ffb6a3"/>
  <rect x="174" y="294" width="84" height="12" rx="6" fill="#fff3e7" opacity="0.72"/>
  <rect x="274" y="294" width="64" height="12" rx="6" fill="#fff3e7" opacity="0.42"/>

  <path d="M369 88l10 29 29 10-29 10-10 29-10-29-29-10 29-10 10-29Z" fill="#fff8ef"/>
  <path d="M118 352l7 19 19 7-19 7-7 19-7-19-19-7 19-7 7-19Z" fill="#fff8ef" opacity="0.92"/>
  <path d="M155 133h202c10 0 18 8 18 18v176c0 10-8 18-18 18H155c-10 0-18-8-18-18V151c0-10 8-18 18-18Z" fill="none" stroke="#fff8ef" stroke-opacity="0.32" stroke-width="6"/>
</svg>
